<?xml version="1.0" encoding="utf-8"?>
<!-- Generator: Adobe Illustrator 18.1.1, SVG Export Plug-In . SVG Version: 6.00 Build 0)  -->
<svg version="1.1" id="Layer_1" xmlns="http://www.w3.org/2000/svg" xmlns:xlink="http://www.w3.org/1999/xlink" x="0px" y="0px"
	 width="144px" height="144px" viewBox="0 0 144 144" enable-background="new 0 0 144 144" xml:space="preserve">
<path fill="#FFFFFF" d="M63.9,127.2c0-2.1-0.1-4.3-0.1-6.4c-0.2-4.2-1.8-7.9-4.1-11.3c-2.2-3.2-4.5-6.3-6.8-9.5
	c-4.1-6-6.6-12.6-8.5-19.5c-1.7-6.1-4.1-11.8-6.9-17.4c-1.6-3.3-3.2-6.6-4.7-10c-0.7-1.5-1.1-3-1.5-4.5c-0.4-1.7,0.3-3.2,1.8-4.1
	c1-0.6,2.2-0.4,2.9,0.6c2.7,4.1,5.3,8.3,7.9,12.5c1.6,2.6,3.2,5.2,4.7,7.9c0.2,0.3,0.3,0.7,0.6,0.8c0.4,0.2,1,0.5,1.4,0.4
	c0.3-0.1,0.6-0.8,0.6-1.1c-0.2-1.3-0.3-2.6-0.8-3.8c-2.7-7-5.5-13.9-8.3-20.8c-1.1-2.9-2.4-5.7-3.2-8.7c-0.8-2.5,0.4-4.1,3-4.7
	c1.8-0.4,2.8,0.3,3.8,2.3c2.1,4.3,4.2,8.6,6.2,13c1.7,3.7,3.4,7.4,5,11.1c0.4,0.9,0.6,1.8,1,2.6c0.2,0.3,0.6,0.5,0.9,0.8
	c0.1-0.4,0.3-0.8,0.3-1.2c-1.8-7.5-3.6-15.1-5.4-22.6c-0.9-3.7-2.1-7.4-3-11.1c-0.2-0.9-0.2-2.1,0-3c0.5-2,2.3-2.4,4-2.5
	c1.4-0.2,2.6,0.6,3.1,1.8c1.2,2.5,2.4,5.1,3.3,7.7c2.9,8.1,5,16.5,6.8,24.9c0.1,0.4,0.2,0.8,0.3,1.1c0.2,0,0.3,0,0.5-0.1
	c-0.1-1-0.3-2.1-0.4-3.1c-1-7.9-3.1-15.5-4.8-23.3c-0.4-1.6-0.7-3.3-0.7-5c-0.1-2.5,2.1-4.1,4.5-3.4c1.5,0.4,2.6,1.4,3.4,2.7
	c1.9,3.1,3,6.5,3.9,9.9c1.7,6.7,3.4,13.4,4.5,20.2c1.1,6.8,3.7,12.7,8.1,18c0.7,0.9,1.6,1.6,2.5,2.3c0.6,0.5,1.4,0.5,1.8-0.2
	c0.7-1,1.5-2,2-3.1c1.5-3,2.8-6,4.3-9c1.6-3.4,4.2-5.9,7.4-7.8c1.6-0.9,3.4-1.3,5.3-1.2c2.2,0.1,3.1,1.4,2,3.4
	c-2.9,5.5-5,11.4-6.8,17.3c-0.4,1.2-0.3,2.6-0.4,3.9c-0.1,2.4-0.1,4.7-0.2,7.1c-0.1,0.8-0.4,1.7-0.8,2.5
	c-3.5,6.2-6.8,12.5-11.4,18.1c-2,2.4-1.8,5.1-1.3,7.9c1,5.5,1.9,11,2.9,16.6c0.1,0.3,0.1,0.7,0.1,1
	C84.3,127.2,74.1,127.2,63.9,127.2z"/>
</svg>
