<?xml version="1.0" encoding="utf-8"?>
<!-- Generator: Adobe Illustrator 18.1.1, SVG Export Plug-In . SVG Version: 6.00 Build 0)  -->
<svg version="1.1" id="Layer_1" xmlns="http://www.w3.org/2000/svg" xmlns:xlink="http://www.w3.org/1999/xlink" x="0px" y="0px"
	 width="144px" height="144px" viewBox="0 0 144 144" enable-background="new 0 0 144 144" xml:space="preserve">
<g>
	<path fill="#FFFFFF" d="M121.5,66c-0.6,2.4-2.4,3.8-4.7,4.2c-8.2,1.6-16.5,3.1-24.7,4.6c-0.4,0.1-0.9,0-1.2-0.1
		c-3.3-2.1-6.7-1.5-10-0.4c-10.7,3.4-21,7.9-30.2,14.3c-6.4,4.4-12.6,9-19,13.4c-1.5,1.1-3.3,1.9-4.9,2.8c-1.5,0.8-3,0.8-4.2-0.6
		c0-0.8,0-1.6,0-2.5c2.3-3.7,5.6-6.4,9.3-8.7C46.9,83.6,62.4,74.8,79.6,70c12.8-3.6,26-5.9,39-8.6c0.8-0.2,1.9,0.8,2.9,1.2
		C121.5,63.7,121.5,64.9,121.5,66z"/>
	<path fill="#FFFFFF" d="M100.4,39.3c3.3,2.2,6.5,0.8,9.7-0.2c4-1.2,7,0.8,7.3,5.1c0.2,2.4-0.7,4.4-3.2,4.9
		c-6.7,1.4-13.5,2.7-20.3,3.8c-1,0.2-2.6-0.6-3.1-1.4c-0.4-0.8,0-2.4,0.6-3.3c1.7-2.9,4.5-3.9,7.9-3.2c2,0.4,4,1.1,6,1.3
		c1.2,0.1,3.6-0.3,3.6-0.5c0-2.3-2-1.7-3.3-1.9c-2.5-0.3-4.4-1.3-5.2-3.8C100.4,39.9,100.4,39.8,100.4,39.3z"/>
	<path fill="#FFFFFF" d="M114.2,59.2c-0.3,0.3-0.8,0.8-1.2,1.4c-0.5-0.5-1.2-0.9-1.3-1.5c-0.4-1.9-0.7-3.9-0.9-5.8
		c0-0.6,0.6-1.2,0.9-1.7c0.5,0.5,1.4,0.9,1.5,1.4C113.7,54.8,113.9,56.8,114.2,59.2z"/>
	<path fill="#FFFFFF" d="M97.9,53.9c0.6,0.8,1.1,1.1,1.3,1.6c0.5,2.1,1,4.1,1.4,6.2c0.1,0.5-0.5,1.1-0.8,1.6
		c-0.5-0.3-1.4-0.4-1.5-0.8c-0.6-2.2-1.1-4.4-1.5-6.7C96.7,55.4,97.4,54.8,97.9,53.9z"/>
	<path fill="#FFFFFF" d="M107.2,60.7c-0.2,0.3-0.7,1.2-1,1.1c-0.6-0.1-1.4-0.6-1.5-1.1c-0.6-2.1-1-4.2-1.3-6.3
		c-0.1-0.5,0.5-1,0.8-1.6c0.5,0.4,1.4,0.7,1.5,1.2C106.4,56.1,106.7,58.2,107.2,60.7z"/>
	<path fill="#FFFFFF" d="M103.9,61.4c-0.3,0.3-0.7,0.8-1.1,1.3c-0.5-0.4-1.3-0.8-1.4-1.3c-0.5-1.8-0.9-3.7-1.1-5.6
		c-0.1-0.6,0.5-1.3,0.7-2c0.5,0.5,1.4,0.9,1.6,1.5C103.1,57.1,103.4,59,103.9,61.4z"/>
	<path fill="#FFFFFF" d="M93.1,56.6c0.2-0.4,0.7-1.3,0.9-1.2c0.6,0.1,1.4,0.6,1.6,1.1c0.6,2,1.1,4.1,1.5,6.2
		c0.1,0.5-0.4,1.3-0.8,1.5c-0.3,0.1-1.3-0.4-1.4-0.8C94.2,61.3,93.7,59.1,93.1,56.6z"/>
	<path fill="#FFFFFF" d="M110.7,59.8c-0.3,0.3-0.8,0.8-1.2,1.3c-0.5-0.5-1.2-0.9-1.3-1.5c-0.4-1.9-0.7-3.9-0.9-5.9
		c0-0.5,0.6-1.1,1-1.7c0.5,0.4,1.3,0.8,1.4,1.3C110.1,55.4,110.4,57.4,110.7,59.8z"/>
</g>
</svg>
