<?xml version="1.0" encoding="utf-8"?>
<!-- Generator: Adobe Illustrator 18.1.1, SVG Export Plug-In . SVG Version: 6.00 Build 0)  -->
<svg version="1.1" id="Layer_1" xmlns="http://www.w3.org/2000/svg" xmlns:xlink="http://www.w3.org/1999/xlink" x="0px" y="0px"
	 width="144px" height="144px" viewBox="0 0 144 144" enable-background="new 0 0 144 144" xml:space="preserve">
<g>
	<path fill="#FFFFFF" d="M24.3,72.1c9-14.6,20.7-24.6,37.2-28.2c2.8-0.6,3.8-1.6,3.6-4.4c-0.2-2.9,0-5.8,0-9c4.7,0,8.9,0,13.9,0
		c0,2.9,0.2,5.8,0,8.7c-0.2,2.9,0.6,4.1,3.7,4.7c16.4,3.6,28.1,13.6,37.1,28.1C87.8,72.1,56.4,72.1,24.3,72.1z"/>
	<path fill="#FFFFFF" d="M55.7,84.1c0,1.8,0.3,3.7-0.1,5.4c-0.3,1-1.6,1.8-2.5,2.7c-0.8-0.9-2.1-1.7-2.2-2.6
		c-0.3-3.6-0.3-7.3,0-10.9c0.1-1,1.6-1.8,2.5-2.7c0.8,0.9,2,1.6,2.2,2.6C56,80.4,55.7,82.2,55.7,84.1z"/>
	<path fill="#FFFFFF" d="M92.2,105.3c0,1.8,0.3,3.7-0.1,5.4c-0.2,1-1.6,1.8-2.5,2.7c-0.8-0.9-2.1-1.7-2.2-2.6
		c-0.3-3.6-0.3-7.3,0-10.9c0.1-1,1.6-1.8,2.5-2.7c0.8,0.9,2,1.6,2.2,2.6C92.5,101.6,92.2,103.5,92.2,105.3
		C92.2,105.3,92.2,105.3,92.2,105.3z"/>
	<path fill="#FFFFFF" d="M92.2,84.4c0,1.8,0.3,3.7-0.1,5.4c-0.2,0.9-1.5,2.2-2.3,2.2c-0.8,0-2.2-1.4-2.3-2.3
		c-0.2-3.8-0.2-7.6,0-11.3c0.1-0.8,1.5-1.6,2.3-2.4c0.8,0.8,2.1,1.6,2.3,2.5C92.5,80.4,92.2,82.4,92.2,84.4z"/>
	<path fill="#FFFFFF" d="M37,84.5c0,1.7,0.3,3.5-0.1,5c-0.3,1-1.7,1.8-2.5,2.7c-0.7-0.9-2-1.7-2.1-2.6c-0.2-3.6-0.2-7.3,0-10.9
		c0.1-0.9,1.4-1.8,2.1-2.6c0.9,0.9,2.3,1.6,2.5,2.7C37.3,80.5,37,82.6,37,84.5z"/>
	<path fill="#FFFFFF" d="M55.7,105.4c0,1.8,0.3,3.7-0.1,5.4c-0.2,1-1.4,2.3-2.2,2.4c-0.8,0.1-2.3-1.3-2.4-2.1
		c-0.2-3.9-0.2-7.9,0-11.8c0-0.8,1.5-2.1,2.1-2c1,0.2,2.3,1.3,2.5,2.2C55.9,101.4,55.7,103.5,55.7,105.4
		C55.7,105.4,55.7,105.4,55.7,105.4z"/>
	<path fill="#FFFFFF" d="M82.9,93.6c0,1.8,0.3,3.7-0.1,5.4c-0.2,0.9-1.4,2-2.3,2.3c-0.6,0.2-2.2-1.1-2.2-1.8c-0.2-4-0.2-8.1,0-12.2
		c0-0.7,1.6-2,2.2-1.9c1,0.3,2.2,1.4,2.3,2.3C83.2,89.7,82.9,91.7,82.9,93.6z"/>
	<path fill="#FFFFFF" d="M32.1,105.5c0-1.8-0.3-3.7,0.1-5.4c0.2-1.1,1.5-1.9,2.3-2.9c0.8,0.8,2.2,1.6,2.3,2.5
		c0.3,3.8,0.2,7.6,0,11.3c-0.1,0.8-1.5,1.6-2.3,2.4c-0.8-0.8-2.1-1.5-2.3-2.5C31.9,109.2,32.2,107.4,32.1,105.5
		C32.2,105.5,32.2,105.5,32.1,105.5z"/>
	<path fill="#FFFFFF" d="M60.1,93.3c0-2-0.2-3.9,0.1-5.9c0.1-0.8,1.3-2,2.1-2c0.8,0,2.2,1.1,2.3,1.8c0.2,4,0.3,8.1,0.1,12.1
		c0,0.7-1.6,2.1-2.1,2c-0.9-0.2-2.2-1.3-2.3-2.2C59.8,97.3,60.1,95.3,60.1,93.3C60.1,93.3,60.1,93.3,60.1,93.3z"/>
	<path fill="#FFFFFF" d="M96.6,93.4c0-1.8-0.2-3.7,0.1-5.4c0.2-1,1.4-1.7,2.1-2.6c0.8,0.8,2.3,1.5,2.4,2.3c0.3,3.9,0.2,7.8,0,11.7
		c-0.1,0.8-1.6,1.8-2.6,2c-0.5,0.1-1.8-1.3-1.9-2.2C96.4,97.3,96.6,95.3,96.6,93.4C96.6,93.4,96.6,93.4,96.6,93.4z"/>
	<path fill="#FFFFFF" d="M73.7,105.6c0,1.7,0.3,3.4-0.1,5c-0.3,1.1-1.5,1.9-2.3,2.8c-0.8-0.8-2.1-1.6-2.2-2.5
		c-0.2-3.8-0.2-7.6,0-11.3c0.1-0.9,1.5-1.6,2.3-2.4c0.8,0.8,2,1.6,2.2,2.5C73.9,101.7,73.7,103.7,73.7,105.6
		C73.7,105.6,73.7,105.6,73.7,105.6z"/>
	<path fill="#FFFFFF" d="M46,93.6c0,2,0.2,4-0.1,5.9c-0.1,0.8-1.5,1.9-2.3,1.9c-0.8,0-2.1-1.2-2.1-2c-0.2-3.9-0.2-7.9,0-11.9
		c0-0.8,1.6-2.2,2-2.1c1,0.3,2.2,1.3,2.4,2.2C46.3,89.6,46.1,91.7,46,93.6C46,93.6,46,93.6,46,93.6z"/>
	<path fill="#FFFFFF" d="M73.7,84.1c0,1.8,0.2,3.7-0.1,5.5c-0.2,1-1.4,1.7-2.1,2.6c-0.8-0.8-2.3-1.5-2.3-2.4
		c-0.3-3.8-0.2-7.6,0-11.4c0.1-0.8,1.5-1.6,2.4-2.4c0.7,0.9,1.9,1.6,2.1,2.6C73.9,80.4,73.7,82.3,73.7,84.1z"/>
	<path fill="#FFFFFF" d="M110.3,105.5c0,1.8,0.3,3.7-0.1,5.5c-0.2,0.9-1.4,1.7-2.2,2.5c-0.8-0.8-2.1-1.6-2.2-2.5
		c-0.2-3.8-0.2-7.6,0.1-11.4c0.1-0.8,1.5-1.5,2.4-2.3c0.7,0.8,1.8,1.5,1.9,2.3C110.5,101.5,110.3,103.5,110.3,105.5
		C110.3,105.5,110.3,105.5,110.3,105.5z"/>
	<path fill="#FFFFFF" d="M110.3,84.1c0,1.8,0.2,3.7-0.1,5.5c-0.2,1-1.4,1.8-2.1,2.6c-0.8-0.8-2.2-1.5-2.3-2.4
		c-0.3-3.8-0.3-7.6,0-11.4c0.1-0.9,1.5-1.6,2.3-2.4c0.7,0.9,1.9,1.6,2.1,2.6C110.5,80.4,110.3,82.3,110.3,84.1z"/>
</g>
</svg>
