<?xml version="1.0" encoding="utf-8"?>
<!-- Generator: Adobe Illustrator 18.1.1, SVG Export Plug-In . SVG Version: 6.00 Build 0)  -->
<svg version="1.1" id="Layer_1" xmlns="http://www.w3.org/2000/svg" xmlns:xlink="http://www.w3.org/1999/xlink" x="0px" y="0px"
	 width="144px" height="144px" viewBox="0 0 144 144" enable-background="new 0 0 144 144" xml:space="preserve">
<g>
	<path fill="#FFFFFF" d="M40.4,119.9c1.5-5.7,4.7-10.3,9-14.3c5.5-5.2,4.1-11.9-2.9-14.9c-2.7-1.2-5.4-2.3-7.9-3.8
		c-4.2-2.6-6.7-6.5-7.3-11.6c27.1,0,54.1,0,81.4,0c-3.1,8-7.2,14.8-15.9,17.4c-2.6,0.8-5.2,1.4-7.7,2.4c-3.7,1.5-4.5,5.4-1.9,8.4
		c1.1,1.2,2.4,2.3,3.8,3.2c4.9,3.1,7.4,7.5,7.7,13.3C79.3,119.9,59.9,119.9,40.4,119.9z"/>
	<path fill="#FFFFFF" d="M52.4,24.1c2.1,1.2,2.9,3.1,2.9,5.6c-0.1,12.4,0,24.9,0,37.3c0,4.1-1.4,5.5-5.4,5.5c-4.5,0-8.9,0-13.4,0
		c-3.6,0-5.1-1.5-5.1-5.1c0-12.7,0-25.3,0-38c0-2.5,0.8-4.1,2.9-5.2C40.2,24.1,46.3,24.1,52.4,24.1z"/>
	<path fill="#FFFFFF" d="M112.6,72.4c-18.8,0-37.4,0-56.1,0c0.1-3.4,2-5.1,5.5-5.1c11.2,0,22.5,0,33.7,0c3.8,0,7.7,0,11.5,0
		C110.4,67.3,112.2,68.9,112.6,72.4z"/>
</g>
</svg>
